<svg height="297.875" viewBox="0 0 414 297.875" width="414" xmlns="http://www.w3.org/2000/svg"><path d="m377.911 350.739c.876.545 1.736 1.1 2.6 1.674a219.71 219.71 0 0 1 15.327 71.563q.2 4.257.2 8.5a213.333 213.333 0 0 1 -9.162 62.638q-.487 1.6-.995 3.194c-.243.761-.49 1.529-.758 2.284l-.846 1.147c-.02.017-.037.045-.057.062-.113.153-.226.307-.328.457-.485.651-.978 1.3-1.463 1.95l.409.028 1.025.065v.007c-.344-.007-.695-.018-1.042-.037-.126 0-.263 0-.392-.008s-.236-.009-.351-.011c-14.771-.4-29.888-1.137-43.33-7.178-14.069-6.328-26-20.009-25.4-35.419a27.658 27.658 0 0 1 .913-5.973c.218-.815.475-1.616.751-2.415a29.121 29.121 0 0 1 49.961-9.144c-4.032-15.846-21.342-23.932-36.932-28.848s-33.155-10.052-41.126-24.33c-4.45-7.945-4.557-17.2-1.654-25.75.088-.255.181-.518.281-.776a42.493 42.493 0 0 1 20.491-23.262c17.829-8.827 39.494-5.713 57.763 2.166a105.343 105.343 0 0 1 14.121 7.414z" fill="#f2f2f2" transform="translate(-283.284 -261.51)"/><path d="m343.226 515.465a65.568 65.568 0 0 1 37.727 16.435 67.1 67.1 0 0 1 19.078 29.93c.207.659.4 1.316.572 1.976.354-.674.7-1.363 1.038-2.046.219-.437.442-.881.654-1.322-.243.761-.49 1.529-.758 2.284l-.846 1.147c-.02.017-.037.045-.057.062-.113.153-.226.307-.328.457-.485.651-.978 1.3-1.463 1.95l.409.028 1.024.065v.007c-.344-.007-.695-.019-1.042-.037-.126 0-.263 0-.392-.008-.042-.2-.1-.4-.149-.595a63.351 63.351 0 0 0 -68.016-47.986c.218-.815.475-1.616.751-2.415a67.758 67.758 0 0 1 11.8.065z" fill="#fff" transform="translate(-299.7 -323.64)"/><path d="m374.416 409.743a72.14 72.14 0 0 1 14.774 14.876 59.852 59.852 0 0 1 5.644 9.585c.749 1.561 1.431 3.167 2.044 4.791q.2 4.258.2 8.5a61.824 61.824 0 0 0 -1.9-6.32c-.388-1.137-.819-2.252-1.278-3.354-5.138-12.343-14.448-22.088-25.428-29.5a156.543 156.543 0 0 0 -38.472-18.301 177.557 177.557 0 0 0 -42.529-8.488 1.273 1.273 0 0 1 -1.17-1.315 1.1 1.1 0 0 1 .281-.776.91.91 0 0 1 .781-.248c1.786.134 3.567.275 5.348.464a179.662 179.662 0 0 1 43.377 10.013c13.502 4.925 26.867 11.315 38.328 20.073z" fill="#fff" transform="translate(-284.328 -276.53)"/><circle cx="16.665" cy="59.997" fill="#f2f2f2" r="4.953"/><path d="m96.108 105.72h224.833v191.5h-224.833z" fill="#fff"/><path d="m655.471 575.685h-226.14v-192.807h226.14zm-224.833-1.307h223.526v-190.193h-223.526z" fill="#3f3d56" transform="translate(-333.877 -277.811)"/><path d="m180.42 142.975h56.208v154.246h-56.208z" fill="#536dfe"/><path d="m180.42 142.975h56.208v154.246h-56.208z" fill="#536dfe"/><path d="m148.046 183.255v31.07l224.179 14.354-.661-38.338z" opacity=".2" transform="translate(-51.285 -63.483)"/><path d="m83.036 88.074h250.976v54.901h-250.976z" fill="#fff"/><path d="m661.614 412.086h-252.283v-56.208h252.283zm-250.976-1.307h249.669v-53.594h-249.669z" fill="#3f3d56" transform="translate(-326.948 -268.457)"/><path d="m180.42 82.845h56.208v59.476h-56.208z" fill="#536dfe"/><path d="m561.937 257.725c14.837 21.994.858 57.369.858 57.369s-38.035-.285-52.873-22.279-.858-57.369-.858-57.369 38.036.285 52.873 22.279z" fill="#536dfe" transform="translate(-359.431 -226.738)"/><path d="m599.922 257.725c-14.837 21.994-.858 57.369-.858 57.369s38.035-.285 52.873-22.279.858-57.369.858-57.369-38.036.285-52.873 22.279z" fill="#536dfe" transform="translate(-390.608 -226.738)"/><g fill="#3f3d56"><circle cx="169.309" cy="41.669" r="5.882"/><circle cx="204.602" cy="101.145" r="5.882"/><circle cx="204.602" cy="229.901" r="5.882"/><circle cx="184.996" cy="63.238" r="3.922"/><circle cx="243.818" cy="29.905" r="3.922"/><circle cx="218.328" cy="122.061" r="3.922"/><circle cx="194.799" cy="173.04" r="3.922"/><circle cx="215.06" cy="190.687" r="3.922"/><circle cx="210.485" cy="264.542" r="3.922"/></g><path d="m287.068 195.633h119.63v101.894h-119.63z" fill="#fff"/><path d="m842.3 623.5h-120.327v-102.587h120.327zm-119.63-.7h118.93v-101.2h-118.932z" fill="#3f3d56" transform="translate(-435.253 -325.628)"/><path d="m331.929 215.455h29.907v82.072h-29.907z" fill="#536dfe"/><path d="m331.929 215.455h29.907v82.072h-29.907z" fill="#536dfe"/><path d="m439.752 310.763v16.532l119.282 7.637-.352-20.4z" opacity=".2" transform="translate(-152.336 -107.653)"/><path d="m280.112 186.243h133.54v29.212h-133.54z" fill="#fff"/><path d="m845.567 536.454h-134.236v-29.907h134.236zm-133.54-.7h132.844v-28.512h-132.845z" fill="#3f3d56" transform="translate(-431.566 -320.652)"/><path d="m331.929 183.461h29.907v31.646h-29.907z" fill="#536dfe"/><path d="m792.53 454.322c7.895 11.7.456 30.525.456 30.525s-20.238-.152-28.133-11.854-.456-30.525-.456-30.525 20.239.151 28.133 11.854z" fill="#536dfe" transform="translate(-448.85 -298.453)"/><path d="m812.742 454.322c-7.895 11.7-.457 30.525-.457 30.525s20.238-.152 28.133-11.854.456-30.525.456-30.525-20.238.151-28.132 11.854z" fill="#536dfe" transform="translate(-465.439 -298.453)"/><circle cx="326.017" cy="161.552" fill="#3f3d56" r="3.13"/><circle cx="344.796" cy="193.198" fill="#3f3d56" r="3.13"/><circle cx="344.796" cy="261.707" fill="#3f3d56" r="3.13"/><circle cx="334.364" cy="173.028" fill="#3f3d56" r="2.087"/><circle cx="365.662" cy="155.293" fill="#3f3d56" r="2.087"/><circle cx="352.099" cy="204.327" fill="#3f3d56" r="2.087"/><circle cx="339.58" cy="231.452" fill="#3f3d56" r="2.087"/><circle cx="350.361" cy="240.842" fill="#3f3d56" r="2.087"/><circle cx="347.927" cy="280.139" fill="#3f3d56" r="2.087"/><ellipse cx="4.418" cy="14.074" fill="#2f2e41" rx="4.418" ry="14.074" transform="matrix(.42852517 -.90352984 .90352984 .42852517 173.529 242.512)"/><ellipse cx="4.418" cy="14.074" fill="#2f2e41" rx="4.418" ry="14.074" transform="matrix(.76673956 -.64195829 .64195829 .76673956 237.359 254.548)"/><circle cx="219.842" cy="257.612" fill="#2f2e41" r="28.148"/><path d="m223.205 279.702h8.551v15.321h-8.551z" fill="#2f2e41"/><path d="m206.102 279.702h8.551v15.321h-8.551z" fill="#2f2e41"/><ellipse cx="224.63" cy="295.202" fill="#2f2e41" rx="7.126" ry="2.672"/><ellipse cx="207.527" cy="294.845" fill="#2f2e41" rx="7.126" ry="2.672"/><path d="m605.914 554.726c2.513-10.122 13.608-16.079 24.78-13.3s18.192 13.229 15.679 23.351-10.852 10.155-22.025 7.381-20.948-7.31-18.434-17.432z" fill="#e6e6e6" transform="translate(-394.91 -332.497)"/><circle cx="215.634" cy="251.673" fill="#fff" r="9.385"/><circle cx="211.777" cy="248.308" fill="#3f3d56" r="3.128"/><path d="m615.642 635.374a6.256 6.256 0 0 1 -12.31 2.241v-.012c-.616-3.4 2.013-4.6 5.413-5.219s6.282-.41 6.897 2.99z" fill="#fff" transform="translate(-394.122 -364.149)"/><ellipse cx="14.074" cy="4.418" fill="#2f2e41" rx="14.074" ry="4.418" transform="matrix(.92426645 -.381748 .381748 .92426645 260.367 42.826)"/><ellipse cx="4.418" cy="14.074" fill="#2f2e41" rx="4.418" ry="14.074" transform="matrix(.76673956 -.64195829 .64195829 .76673956 324.287 46.303)"/><circle cx="306.769" cy="49.368" fill="#2f2e41" r="28.148"/><path d="m310.131 71.459h8.551v15.321h-8.551z" fill="#2f2e41"/><path d="m293.029 71.459h8.551v15.321h-8.551z" fill="#2f2e41"/><ellipse cx="311.556" cy="86.958" fill="#2f2e41" rx="7.126" ry="2.672"/><ellipse cx="294.454" cy="86.602" fill="#2f2e41" rx="7.126" ry="2.672"/><path d="m738.914 236.108c2.513-10.122 13.608-16.079 24.781-13.3s18.192 13.229 15.679 23.351-10.852 10.155-22.024 7.38-20.95-7.309-18.436-17.431z" fill="#536dfe" transform="translate(-440.983 -222.122)"/><circle cx="302.561" cy="43.429" fill="#fff" r="9.385"/><circle cx="298.703" cy="44.64" fill="#3f3d56" r="3.128"/><path d="m748.642 316.756a6.256 6.256 0 1 1 -12.31 2.244v-.012c-.615-3.4 2.013-4.6 5.413-5.219s6.282-.413 6.897 2.987z" fill="#fff" transform="translate(-440.195 -253.775)"/><circle cx="65.938" cy="257.612" fill="#2f2e41" r="28.148"/><path d="m53.11 279.702h8.551v15.321h-8.551z" fill="#2f2e41"/><path d="m70.213 279.702h8.551v15.321h-8.551z" fill="#2f2e41"/><ellipse cx="60.236" cy="295.202" fill="#2f2e41" rx="7.126" ry="2.672"/><ellipse cx="77.339" cy="294.845" fill="#2f2e41" rx="7.126" ry="2.672"/><path d="m342.172 563.753c-2.273-10.179 4.992-20.464 16.228-22.973s22.185 3.709 24.458 13.888-5.173 13.932-16.408 16.442-22.005 2.821-24.278-7.357z" fill="#536dfe" transform="translate(-303.539 -332.318)"/><ellipse cx="15.616" cy="4.902" fill="#2f2e41" rx="15.616" ry="4.902" transform="matrix(.70683522 -.70737824 .70737824 .70683522 78.296 249.426)"/><ellipse cx="4.902" cy="15.616" fill="#2f2e41" rx="4.902" ry="15.616" transform="matrix(.70737824 -.70683522 .70683522 .70737824 17.705 236.227)"/><circle cx="64.753" cy="253.622" fill="#fff" r="9.62"/><circle cx="64.753" cy="253.623" fill="#3f3d56" r="3.207"/><path d="m387.468 635.665a6.256 6.256 0 0 1 -12.31 2.241v-.012c-.616-3.4 2.013-4.6 5.413-5.219s6.282-.41 6.897 2.99z" fill="#fff" transform="translate(-315.079 -364.25)"/></svg>