<svg xmlns="http://www.w3.org/2000/svg" width="253.811" height="279.428" xmlns:v="https://vecta.io/nano"><g transform="matrix(-.777146 .62932 -.62932 -.777146 370.941 117.442)"><g fill="#536dfe"><path d="M180.419 77.845h56.208V297.22h-56.208z"/><path d="M202.505 30.987c14.837 21.994.858 57.369.858 57.369s-38.035-.285-52.873-22.279-.858-57.369-.858-57.369 38.036.285 52.873 22.279z"/><path d="M209.313 30.987c-14.837 21.994-.858 57.369-.858 57.369s38.035-.285 52.873-22.279.858-57.369.858-57.369-38.036.285-52.873 22.279z"/></g><g fill="#3f3d56"><circle cx="169.308" cy="41.669" r="5.882"/><circle cx="204.601" cy="101.145" r="5.882"/><circle cx="204.601" cy="229.901" r="5.882"/><circle cx="184.995" cy="63.238" r="3.922"/><circle cx="243.817" cy="29.905" r="3.922"/><circle cx="218.327" cy="122.061" r="3.922"/><circle cx="194.798" cy="173.04" r="3.922"/><circle cx="215.059" cy="190.687" r="3.922"/><circle cx="210.484" cy="264.542" r="3.922"/></g></g></svg>