<svg height="156.123" width="165.668" xmlns="http://www.w3.org/2000/svg"><g transform="matrix(-.65605903 -.75470958 .75470958 -.65605903 136.828381 270.262286)"><path d="m165.783 50.313h33.824v132.014h-33.824z" fill="#536dfe"/><path d="m179.073 22.115c8.929 13.235.516 34.523.516 34.523s-22.889-.172-31.817-13.407-.516-34.523-.516-34.523 22.889.172 31.817 13.407z" fill="#536dfe"/><path d="m183.166 22.115c-8.929 13.235-.516 34.523-.516 34.523s22.889-.172 31.817-13.407.516-34.523.516-34.523-22.884.172-31.817 13.407z" fill="#536dfe"/><g fill="#3f3d56"><circle cx="159.097" cy="28.544" r="3.54"/><circle cx="180.335" cy="64.334" r="3.54"/><circle cx="180.335" cy="141.816" r="3.54"/><circle cx="168.536" cy="41.523" r="2.36"/><circle cx="203.934" cy="21.464" r="2.36"/><circle cx="188.595" cy="76.92" r="2.36"/><circle cx="174.436" cy="107.598" r="2.36"/><circle cx="186.628" cy="118.217" r="2.36"/><circle cx="183.875" cy="162.661" r="2.36"/></g></g></svg>