<svg height="487.143" viewBox="0 0 527.785 487.143" width="527.785" xmlns="http://www.w3.org/2000/svg"><g fill="#536dfe"><path d="m469.217 348.456c1.672 1.04 30.562 16.806 32.2 17.9 17.321 43.574 113.183 64.433 115.234 111.278.252 5.417 16.8 43.818 16.8 49.219.149 40.5-29.945 24.906-41.687 63.667-.62 2.041-31.078 66.7-31.724 68.723-.463 1.452-34.321 7.3-34.832 8.739-.544.739-6.123 6.171-6.659 6.9-.038.032-4.23-4.154-4.268-4.121-.216.293-15.819-4.2-16.013-3.916-.926 1.243-24.834-10.866-25.76-9.623l.78.053 1.955.124-.008.013c-.656-.014-1.326-.035-1.988-.07-.241 0-.5.006-.748-.015-.219 0-.451-.017-.67-.021-28.193-.764-57.046-2.171-82.7-13.7-26.854-12.078-49.632-38.191-48.475-67.6a52.787 52.787 0 0 1 1.743-11.4c.416-1.556.907-3.084 1.433-4.609a55.582 55.582 0 0 1 95.358-17.453c-7.7-30.245-40.734-45.678-70.491-55.061-29.779-9.377-63.282-19.187-78.5-46.438-8.494-15.165-8.7-32.833-3.156-49.149.169-.487.346-.989.537-1.482a81.1 81.1 0 0 1 39.11-44.4c34.03-16.849 75.381-10.9 110.249 4.134 9.329 4.029 23.661-7.076 32.275-1.685z" transform="matrix(.719 -.695 .695 .719 -396.694 198.464)"/><ellipse cx="16.453" cy="16.453" rx="16.453" ry="16.453" transform="matrix(.719 -.695 .695 .719 0 203.092)"/></g></svg>